<svg xmlns="http://www.w3.org/2000/svg" width="14.722" height="13.06" viewBox="0 0 14.722 13.06">
  <path id="Trazado_1121" data-name="Trazado 1121" d="M1005.775,1748.581a3.619,3.619,0,0,0-2.953-1.667,3.967,3.967,0,0,1-6.317,0,3.619,3.619,0,0,0-2.953,1.667,3.546,3.546,0,0,0-.388,2.721c.3,1.452,1.466,3.065,3.462,4.793a24.742,24.742,0,0,0,2.884,2.15l.153.094.153-.094a24.761,24.761,0,0,0,2.884-2.15c2-1.729,3.161-3.342,3.462-4.793A3.546,3.546,0,0,0,1005.775,1748.581Z" transform="translate(-992.302 -1746.161)" fill="none" stroke="#ed8067" stroke-width="1.5"/>
</svg>
