<svg xmlns="http://www.w3.org/2000/svg" width="15.791" height="8.287" viewBox="0 0 15.791 8.287">
  <g id="Grupo_2189" data-name="Grupo 2189" transform="translate(0.3 0.3)">
    <g id="Grupo_2142" data-name="Grupo 2142" transform="translate(0 0)">
      <g id="Grupo_2141" data-name="Grupo 2141" transform="translate(0 0)">
        <path id="Trazado_767" data-name="Trazado 767" d="M440.835,439.243a3.831,3.831,0,0,0-1.461-.916,2.222,2.222,0,1,0-2.515,0,3.85,3.85,0,0,0-2.586,3.634h.6a3.243,3.243,0,0,1,6.486,0h.6A3.819,3.819,0,0,0,440.835,439.243Zm-2.718-1.126a1.621,1.621,0,1,1,1.622-1.621A1.623,1.623,0,0,1,438.117,438.117Z" transform="translate(-434.274 -434.274)" fill="#262633" stroke="#262633" stroke-width="0.6"/>
      </g>
    </g>
    <g id="Grupo_2143" data-name="Grupo 2143" transform="translate(7.504 0)">
      <g id="Grupo_2141-2" data-name="Grupo 2141" transform="translate(0 0)">
        <path id="Trazado_767-2" data-name="Trazado 767" d="M440.835,439.243a3.831,3.831,0,0,0-1.461-.916,2.222,2.222,0,1,0-2.515,0,3.85,3.85,0,0,0-2.586,3.634h.6a3.243,3.243,0,0,1,6.486,0h.6A3.819,3.819,0,0,0,440.835,439.243Zm-2.718-1.126a1.621,1.621,0,1,1,1.622-1.621A1.623,1.623,0,0,1,438.117,438.117Z" transform="translate(-434.274 -434.274)" fill="#262633" stroke="#262633" stroke-width="0.6"/>
      </g>
    </g>
  </g>
</svg>
