<svg xmlns="http://www.w3.org/2000/svg" width="46.295" height="46.295" viewBox="0 0 46.295 46.295">
  <path id="dreamon-regalos-viajes-experiencias-regalos-icono-urban-desk" d="M-258.073,672.741h-2.112v-3.723A1.114,1.114,0,0,0-261.3,667.9h-10.748a1.115,1.115,0,0,0-1.114,1.114v3.723h-2.111a1.114,1.114,0,0,0-1.114,1.113v8.023h-8.163v-5.335a1.115,1.115,0,0,0-1.114-1.114h-2.649V672.6a1.115,1.115,0,0,0-1.113-1.114h-3.545v-2.469a1.114,1.114,0,0,0-1.113-1.114,1.115,1.115,0,0,0-1.114,1.114v2.469h-3.544a1.115,1.115,0,0,0-1.114,1.114v2.827h-2.291a1.114,1.114,0,0,0-1.113,1.114v36.545a1.114,1.114,0,0,0,1.113,1.113h44.069a1.114,1.114,0,0,0,1.114-1.113V673.854A1.114,1.114,0,0,0-258.073,672.741Zm-39.551,2.687v-1.714h7.089v1.714Zm26.692-2.687v-2.61h8.521v2.61Zm8.56,4.3a1.116,1.116,0,0,0-1.114,1.115v33.818h-2.072V678.154a1.116,1.116,0,0,0-1.114-1.115,1.116,1.116,0,0,0-1.114,1.115V709.1a4.623,4.623,0,0,0-2.072-.68V678.154a1.116,1.116,0,0,0-1.114-1.115,1.116,1.116,0,0,0-1.114,1.115v28.411a8.081,8.081,0,0,0-2.071-1.089V674.968h14.97v37h-2.072V678.154A1.115,1.115,0,0,0-262.372,677.04Zm-14.456,30.2a5.871,5.871,0,0,1,5.04,2.887,1.12,1.12,0,0,0,1.142.536,2.464,2.464,0,0,1,2.595,1.307h-12.479a6.005,6.005,0,0,0-1-2.352A5.852,5.852,0,0,1-276.828,707.243Zm-21.863,4.73h-2.337V677.655h14.254v4.221h-5.694a1.115,1.115,0,0,0-1.114,1.114v22.116a6.632,6.632,0,0,0-5.123,6.443C-298.705,711.69-298.7,711.832-298.691,711.973Zm5.959-4.762a1.121,1.121,0,0,0,.677-.048,4.4,4.4,0,0,1,3.526,1.832,1.1,1.1,0,0,0,1.175.429,3.815,3.815,0,0,1,.925-.114,3.811,3.811,0,0,1,3.608,2.663h-13.637c-.014-.14-.021-.283-.021-.424A4.4,4.4,0,0,1-292.732,707.211Zm9.589.856a5.953,5.953,0,0,0-3.286-.984,5.992,5.992,0,0,0-.747.047,6.677,6.677,0,0,0-4.178-2.149v-.813h11.987a1.115,1.115,0,0,0,1.114-1.114,1.114,1.114,0,0,0-1.114-1.113h-11.987v-2.789h11.987a1.115,1.115,0,0,0,1.114-1.114,1.115,1.115,0,0,0-1.114-1.114h-11.987v-2.789h11.987a1.115,1.115,0,0,0,1.114-1.114,1.114,1.114,0,0,0-1.114-1.113h-11.987V689.12h11.925a1.115,1.115,0,0,0,1.114-1.114,1.115,1.115,0,0,0-1.114-1.114h-11.925V684.1h14.971v20.925q-.221-.013-.444-.013A8.118,8.118,0,0,0-283.144,708.067Z" transform="translate(303.255 -667.904)" fill="#fff"/>
</svg>
